HIERARCHY
ROOT Hips
{
  OFFSET -331.093 83.8371 -317.828
  CHANNELS 6 Xposition Yposition Zposition Zrotation Xrotation Yrotation
  JOINT LeftUpLeg
  {
    OFFSET 8.64259 1.95398 -2.38835
    CHANNELS 3 Zrotation Xrotation Yrotation
    JOINT LeftLeg
    {
      OFFSET 43.7702 0 0
      CHANNELS 3 Zrotation Xrotation Yrotation
      JOINT LeftFoot
      {
        OFFSET 40.6238 0 0
        CHANNELS 3 Zrotation Xrotation Yrotation
        JOINT LeftToeBase
        {
          OFFSET 12.7242 0 0
          CHANNELS 3 Zrotation Xrotation Yrotation
          End Site
          {
            OFFSET 0 0 0
          }
        }
      }
    }
  }
  JOINT RightUpLeg
  {
    OFFSET -8.2249 1.95398 -2.59336
    CHANNELS 3 Zrotation Xrotation Yrotation
    JOINT RightLeg
    {
      OFFSET 43.5653 0 0
      CHANNELS 3 Zrotation Xrotation Yrotation
      JOINT RightFoot
      {
        OFFSET 40.6238 0 0
        CHANNELS 3 Zrotation Xrotation Yrotation
        JOINT RightToeBase
        {
          OFFSET 12.7242 0 0
          CHANNELS 3 Zrotation Xrotation Yrotation
          End Site
          {
            OFFSET 0 0 0
          }
        }
      }
    }
  }
  JOINT Spine
  {
    OFFSET 0.165834 0.87714 6.61349
    CHANNELS 3 Zrotation Xrotation Yrotation
    JOINT Spine1
    {
      OFFSET 7.38963 1.71661e-005 0
      CHANNELS 3 Zrotation Xrotation Yrotation
      JOINT Spine2
      {
        OFFSET 11.9445 1.14441e-005 0
        CHANNELS 3 Zrotation Xrotation Yrotation
        JOINT Spine3
        {
          OFFSET 14.7254 4.19617e-005 0
          CHANNELS 3 Zrotation Xrotation Yrotation
          JOINT Spine4
          {
            OFFSET 10.9679 0 0
            CHANNELS 3 Zrotation Xrotation Yrotation
            JOINT RightShoulder
            {
              OFFSET 2.46616 -1.6653 3.69651
              CHANNELS 3 Zrotation Xrotation Yrotation
              JOINT RightArm
              {
                OFFSET 13.0012 0 0
                CHANNELS 3 Zrotation Xrotation Yrotation
                JOINT RightForeArm
                {
                  OFFSET 28.7848 1.62311e-005 0
                  CHANNELS 3 Zrotation Xrotation Yrotation
                  JOINT RightHand
                  {
                    OFFSET 26.5688 1.62095e-005 0
                    CHANNELS 3 Zrotation Xrotation Yrotation
                    End Site
                    {
                      OFFSET 0 0 0
                    }
                  }
                }
              }
            }
            JOINT LeftShoulder
            {
              OFFSET 2.38034 -1.29275 -3.7523
              CHANNELS 3 Zrotation Xrotation Yrotation
              JOINT LeftArm
              {
                OFFSET 16.3182 6.07031e-005 0
                CHANNELS 3 Zrotation Xrotation Yrotation
                JOINT LeftForeArm
                {
                  OFFSET 27.0901 0 0
                  CHANNELS 3 Zrotation Xrotation Yrotation
                  JOINT LeftHand
                  {
                    OFFSET 24.5451 1.51738e-005 0
                    CHANNELS 3 Zrotation Xrotation Yrotation
                    End Site
                    {
                      OFFSET 0 0 0
                    }
                  }
                }
              }
            }
            JOINT Neck
            {
              OFFSET 5.0226 -0.0266342 0
              CHANNELS 3 Zrotation Xrotation Yrotation
              JOINT Head
              {
                OFFSET 6.69364 2.86102e-005 0
                CHANNELS 3 Zrotation Xrotation Yrotation
                End Site
                {
                  OFFSET 0 0 0
                }
              }
            }
          }
        }
      }
    }
  }
}
MOTION
Frames:	6
Frame Time:	0.0416667
-293.267 90.881 -292.5 93.9824 -45.1469 92.9564 -168.553 -11.9634 86.2642 -22.7304 7.63548 -8.05297 65.6995 13.2276 15.4275 56.9499 25.414 5.01129 -174.89 44.4003 100.043 -43.1797 -4.3773 -6.72757 74.8051 -3.32559 -2.31593 39.0658 -2.3823 -10.4212 0.242915 7.61165 -89.3275 11.6445 0.798456 1.25717 -0.0267388 0.853028 1.2208 -22.5576 0.38377 1.43898 -2.54498 0.383772 1.43898 91.2092 -43.7554 -99.9812 40.102 -10.7502 31.2994 -170.543 -26.973 -156.228 -74.5162 -22.002 19.4866 -92.4701 -44.5492 74.0594 -15.3202 1.76581 -14.0332 11.1707 -5.01451 -91.7792 19.5945 1.84591 5.58313 -0.891695 0.481573 -1.03735 1.5442 0.53921 -2.38471 
-289.921 87.5198 -289.903 96.3669 -39.721 91.6142 -169.464 -14.1516 84.4676 -29.8558 8.81388 -6.71332 67.1966 16.5801 19.438 59.8434 30.2818 8.04494 -174.866 41.0592 94.6414 -31.3647 -6.87245 -7.31009 70.3923 -2.54223 -1.73915 41.0838 -2.4311 -9.64054 -0.222007 7.90689 -89.1907 11.0566 -0.0666174 1.61583 -0.615413 0.00457081 1.61719 -23.1425 -0.549078 1.52116 -3.12989 -0.549065 1.52116 91.8447 -44.2657 -98.816 40.2165 -11.5815 25.4611 -169.826 -30.6971 -158.876 -76.6703 -21.428 18.0924 -94.7581 -46.6223 71.1471 -16.6038 5.9871 -13.4183 9.84674 -3.33705 -81.1124 17.9337 1.50505 4.52884 0.755098 -0.55643 -1.20883 1.04728 -0.42573 -2.01192 
-284.635 86.549 -285.415 94.8692 -30.6389 89.6853 -170.823 -13.3389 88.0179 -37.385 19.0438 -2.88656 66.7486 10.5405 12.4665 60.662 33.6855 11.4292 -178.095 38.76 90.1308 -27.4221 -5.20213 -4.62687 68.382 -3.2964 -1.86106 40.7126 -2.58938 -10.6194 -1.26738 7.80796 -89.4001 11.2748 -2.24263 1.4193 -0.395214 -2.17799 1.51664 -22.9433 -2.5655 0.679411 -2.93068 -2.56549 0.679404 91.5525 -45.2231 -99.0729 38.1032 -14.0534 19.9502 -161.541 -41.5719 -155.424 -90.5735 -13.9782 3.3844 -95.68 -47.4078 70.0033 -19.4661 8.6115 -12.1809 15.6377 3.28599 -66.9592 13.8072 1.07513 3.77751 2.52587 -0.400406 -0.0597605 -0.175198 -0.412834 -1.69058 
-276.383 86.5372 -278.583 91.3908 -27.4043 90.7293 -170.121 -10.9685 95.4029 -40.8214 25.3096 0.421242 55.5736 -3.99153 -2.76338 50.898 33.8377 26.6369 -179.279 41.4605 92.1505 -36.5278 -5.22519 -3.19179 63.1603 -0.682857 -0.492619 43.6227 -3.70525 -13.6908 -1.7538 7.49489 -90.0444 11.8975 -3.50822 0.292803 0.231301 -3.49192 0.447098 -22.3412 -3.43382 -0.776394 -2.3286 -3.43382 -0.776392 91.5418 -45.3048 -99.0714 34.7716 -17.0629 13.2857 -104.191 -61.963 -108.258 -94.5137 18.928 -26.2486 -95.6336 -47.4622 70.0896 -21.1205 12.115 -10.9154 14.2961 13.6132 -48.5443 16.8558 1.34631 4.05016 4.03047 0.539415 0.964636 -1.31282 0.364962 0.253356 
-268.212 86.6112 -272.109 90.3382 -30.7979 91.8279 -172.744 -3.1694 95.7757 -55.233 26.6439 2.52232 42.5733 -12.5059 -6.59466 16.8656 -7.80426 13.5447 -179.331 42.3378 96.3059 -46.507 -3.16914 -2.9249 63.5548 -0.426663 -0.505761 36.4473 -1.11181 -5.23035 -1.46107 7.58669 -90.4391 11.6962 -3.11205 -0.54935 0.0289038 -3.13319 -0.411732 -22.5307 -2.80299 -1.45992 -2.51805 -2.80299 -1.45992 91.4913 -44.6556 -99.3039 31.8572 -17.9364 4.90295 -17.4788 -23.42 -47.2409 -41.6506 22.238 -63.4876 -97.8406 -48.6782 67.2163 -20.4787 11.1619 -8.49231 6.91191 18.7488 -31.8294 15.9698 1.30183 4.23838 6.21642 1.51497 3.07725 -1.10885 0.88964 -0.203348 
-260.979 87.2866 -266.435 93.1632 -35.301 94.0782 -172.594 10.4573 95.3402 -78.6641 19.4355 2.92047 45.3593 -11.0596 -5.07887 16.783 -7.79314 14.8882 -177.42 36.9037 100.337 -52.2266 -2.59686 -4.1993 70.2878 -3.68465 -2.34749 28.9436 -0.33999 -2.88725 -0.878235 7.95424 -90.5469 10.9572 -2.00155 -0.89738 -0.712492 -2.03912 -0.808402 -23.2537 -1.63934 -1.45751 -3.24103 -1.63934 -1.45752 90.7329 -42.9038 -100.983 30.028 -16.6032 -4.06327 -1.74848 -2.86953 -52.3743 -22.6027 2.04176 -22.9288 -99.259 -50.5451 65.8082 -20.8247 8.05805 -2.43552 5.02176 23.7047 -25.0189 14.0552 1.47517 6.38211 7.0809 1.73687 3.9393 -0.626696 0.915503 0.166238 
